<?xml version="1.0" encoding="UTF-8"?>
<svg xmlns="http://www.w3.org/2000/svg" viewBox="0 0 100 100" width="512" height="512">
  <title>TalentBridge</title>
  <defs>
    <linearGradient id="purpleGrad" x1="0%" y1="0%" x2="100%" y2="100%">
      <stop offset="0%" stop-color="#6366F1"/>
      <stop offset="100%" stop-color="#4338CA"/>
    </linearGradient>
  </defs>
  <rect x="0" y="0" width="100" height="100" rx="22" fill="url(#purpleGrad)"/>
  <rect x="22" y="22" width="4" height="50" fill="#ffffff"/>
    <polygon points="24,16 19,26 29,26" fill="#ffffff"/>
    <rect x="74" y="22" width="4" height="50" fill="#ffffff"/>
    <polygon points="76,16 71,26 81,26" fill="#ffffff"/>
    <path d="M24 26 Q50 58 76 26" stroke="#ffffff" stroke-width="2.5" fill="none" stroke-linecap="round"/>
    <line x1="32" y1="36" x2="32" y2="70" stroke="#ffffff" stroke-width="1" opacity="0.55"/>
    <line x1="40" y1="44" x2="40" y2="70" stroke="#ffffff" stroke-width="1" opacity="0.55"/>
    <line x1="50" y1="47" x2="50" y2="70" stroke="#ffffff" stroke-width="1" opacity="0.55"/>
    <line x1="60" y1="44" x2="60" y2="70" stroke="#ffffff" stroke-width="1" opacity="0.55"/>
    <line x1="68" y1="36" x2="68" y2="70" stroke="#ffffff" stroke-width="1" opacity="0.55"/>
    <rect x="16" y="70" width="68" height="3" rx="0.5" fill="#ffffff"/>
    <line x1="20" y1="82" x2="80" y2="82" stroke="#ffffff" stroke-width="1.2" opacity="0.55"/>
    <line x1="28" y1="87" x2="72" y2="87" stroke="#ffffff" stroke-width="1.2" opacity="0.35"/>
</svg>